<svg width="16" height="16" viewBox="0 0 16 16" fill="none" xmlns="http://www.w3.org/2000/svg">
<path fill-rule="evenodd" clip-rule="evenodd" d="M2.3274 4.64592C2.37163 4.59935 2.42418 4.56241 2.48203 4.5372C2.53989 4.512 2.60191 4.49902 2.66454 4.49902C2.72718 4.49902 2.7892 4.512 2.84705 4.5372C2.9049 4.56241 2.95745 4.59935 3.00168 4.64592L8.37883 10.2929L13.756 4.64592C13.8002 4.59943 13.8528 4.56255 13.9107 4.53739C13.9685 4.51223 14.0305 4.49929 14.0931 4.49929C14.1557 4.49929 14.2177 4.51223 14.2756 4.53739C14.3334 4.56255 14.386 4.59943 14.4303 4.64592C14.4745 4.6924 14.5097 4.74759 14.5336 4.80833C14.5576 4.86907 14.5699 4.93417 14.5699 4.99992C14.5699 5.06566 14.5576 5.13076 14.5336 5.1915C14.5097 5.25224 14.4745 5.30743 14.4303 5.35392L8.71597 11.3539C8.67174 11.4005 8.61919 11.4374 8.56134 11.4626C8.50348 11.4878 8.44146 11.5008 8.37883 11.5008C8.31619 11.5008 8.25417 11.4878 8.19632 11.4626C8.13847 11.4374 8.08592 11.4005 8.04168 11.3539L2.3274 5.35392C2.28305 5.30747 2.24787 5.2523 2.22386 5.19155C2.19986 5.13081 2.1875 5.06568 2.1875 4.99992C2.1875 4.93415 2.19986 4.86903 2.22386 4.80828C2.24787 4.74754 2.28305 4.69236 2.3274 4.64592Z" fill="#9F9FBC"/>
</svg>
