<svg width="16" height="16" viewBox="0 0 16 16" fill="none" xmlns="http://www.w3.org/2000/svg">
<g clip-path="url(#clip0_17663_9664)">
<path d="M8.00174 0.888916C6.59529 0.888916 5.22043 1.30598 4.05102 2.08735C2.8816 2.86873 1.97015 3.97934 1.43193 5.27872C0.893706 6.57811 0.752882 8.00792 1.02727 9.38734C1.30165 10.7668 1.97892 12.0338 2.97342 13.0283C3.96793 14.0228 5.23501 14.7001 6.61443 14.9745C7.99385 15.2489 9.42366 15.1081 10.723 14.5698C12.0224 14.0316 13.133 13.1202 13.9144 11.9507C14.6958 10.7813 15.1129 9.40647 15.1129 8.00003C15.1129 6.11404 14.3636 4.3053 13.0301 2.97171C11.6965 1.63812 9.88772 0.888916 8.00174 0.888916ZM11.5573 10.7111C11.6752 10.829 11.7414 10.9889 11.7414 11.1556C11.7414 11.3223 11.6752 11.4822 11.5573 11.6C11.4394 11.7179 11.2795 11.7841 11.1129 11.7841C10.9462 11.7841 10.7863 11.7179 10.6684 11.6L8.00174 8.93336L5.33507 11.6089C5.27671 11.6673 5.20742 11.7136 5.13116 11.7452C5.0549 11.7768 4.97317 11.793 4.89063 11.793C4.80809 11.793 4.72635 11.7768 4.6501 11.7452C4.57384 11.7136 4.50455 11.6673 4.44618 11.6089C4.38782 11.5506 4.34152 11.4813 4.30993 11.405C4.27835 11.3287 4.26209 11.247 4.26209 11.1645C4.26209 11.0819 4.27835 11.0002 4.30993 10.9239C4.34152 10.8477 4.38782 10.7784 4.44618 10.72L7.11285 8.03558L4.37063 5.27114C4.25275 5.15326 4.18653 4.99339 4.18653 4.82669C4.18653 4.65999 4.25275 4.50012 4.37063 4.38225C4.4885 4.26437 4.64837 4.19815 4.81507 4.19815C4.98177 4.19815 5.14164 4.26437 5.25952 4.38225L8.00174 7.15558L10.744 4.41336C10.8023 4.355 10.8716 4.3087 10.9479 4.27711C11.0241 4.24552 11.1059 4.22927 11.1884 4.22927C11.2709 4.22927 11.3527 4.24552 11.4289 4.27711C11.5052 4.3087 11.5745 4.355 11.6328 4.41336C11.6912 4.47173 11.7375 4.54101 11.7691 4.61727C11.8007 4.69353 11.8169 4.77526 11.8169 4.8578C11.8169 4.94035 11.8007 5.02208 11.7691 5.09834C11.7375 5.17459 11.6912 5.24388 11.6328 5.30225L8.89063 8.03558L11.5573 10.7111Z" fill="#1A1724"/>
</g>
<defs>
<clipPath id="clip0_17663_9664">
<rect width="16" height="16" fill="white"/>
</clipPath>
</defs>
</svg>
