<svg width="14" height="15" viewBox="0 0 14 15" fill="none" xmlns="http://www.w3.org/2000/svg">
<path d="M8.07326 7.49964L9.80188 5.77103L9.80209 5.77124L9.80712 5.76537C9.88417 5.6754 9.92442 5.55968 9.91985 5.44132C9.91528 5.32296 9.86621 5.21069 9.78246 5.12693C9.69871 5.04318 9.58643 4.99411 9.46808 4.98954C9.34972 4.98497 9.23399 5.02523 9.14403 5.10227L9.14386 5.10208L9.13873 5.10715L7.40989 6.81821L5.66958 5.0779L5.66979 5.07768L5.66391 5.07265C5.57395 4.99561 5.45822 4.95535 5.33987 4.95992C5.22151 4.96449 5.10923 5.01356 5.02548 5.09731C4.94173 5.18107 4.89266 5.29334 4.88809 5.4117C4.88352 5.53005 4.92378 5.64578 5.00082 5.73574L5.00063 5.73591L5.00563 5.74098L6.7423 7.49899L5.04591 9.17409C4.99799 9.2158 4.959 9.26679 4.93132 9.32401C4.90309 9.38236 4.88723 9.44591 4.88473 9.51067C4.88222 9.57544 4.89314 9.64002 4.91678 9.70037C4.94042 9.76072 4.97629 9.81553 5.02212 9.86136C5.06795 9.90719 5.12276 9.94305 5.1831 9.9667C5.24345 9.99034 5.30804 10.0013 5.3728 9.99875C5.43757 9.99625 5.50112 9.98039 5.55947 9.95216C5.61658 9.92453 5.6675 9.88563 5.70917 9.83782L7.40212 8.14487L9.08653 9.82928L9.08631 9.82949L9.09219 9.83452C9.18216 9.91156 9.29788 9.95182 9.41624 9.94725C9.53459 9.94268 9.64687 9.89361 9.73062 9.80986C9.81438 9.72611 9.86344 9.61383 9.86801 9.49547C9.87259 9.37712 9.83233 9.26139 9.75528 9.17143L9.75553 9.17122L9.74981 9.16554L8.07326 7.49964Z" fill="#B81800" stroke="#B81800" stroke-width="0.2"/>
<path d="M3.99151 12.509C4.98222 13.171 6.14699 13.5243 7.33851 13.5243C8.93629 13.5243 10.4686 12.8896 11.5984 11.7598C12.7282 10.63 13.363 9.09767 13.363 7.49989C13.363 6.30836 13.0096 5.1436 12.3477 4.15288C11.6857 3.16217 10.7448 2.39 9.64396 1.93403C8.54314 1.47805 7.33183 1.35875 6.1632 1.5912C4.99457 1.82365 3.92112 2.39743 3.07858 3.23996C2.23605 4.08249 1.66228 5.15595 1.42982 6.32458C1.19737 7.4932 1.31667 8.70452 1.77265 9.80534C2.22862 10.9062 3.00079 11.8471 3.99151 12.509ZM4.51405 3.27279C5.35009 2.71416 6.33301 2.416 7.33851 2.416C8.68684 2.416 9.97995 2.95162 10.9334 3.90503C11.8868 4.85845 12.4224 6.15156 12.4224 7.49989C12.4224 8.50538 12.1242 9.4883 11.5656 10.3243C11.007 11.1604 10.213 11.812 9.28403 12.1968C8.35507 12.5816 7.33287 12.6823 6.34669 12.4861C5.36051 12.2899 4.45465 11.8057 3.74366 11.0947C3.03266 10.3837 2.54847 9.47788 2.35231 8.4917C2.15614 7.50553 2.25682 6.48333 2.64161 5.55437C3.0264 4.62541 3.67801 3.83141 4.51405 3.27279Z" fill="#B81800" stroke="#B81800" stroke-width="0.2"/>
</svg>
