<svg width="16" height="17" viewBox="0 0 16 17" fill="none" xmlns="http://www.w3.org/2000/svg">
<g clip-path="url(#clip0_17663_9684)">
<path d="M8.00174 1.38892C6.59529 1.38892 5.22043 1.80598 4.05102 2.58735C2.8816 3.36873 1.97015 4.47934 1.43193 5.77872C0.893706 7.07811 0.752882 8.50792 1.02727 9.88734C1.30165 11.2668 1.97892 12.5338 2.97342 13.5283C3.96793 14.5228 5.23501 15.2001 6.61443 15.4745C7.99385 15.7489 9.42366 15.6081 10.723 15.0698C12.0224 14.5316 13.133 13.6202 13.9144 12.4507C14.6958 11.2813 15.1129 9.90647 15.1129 8.50003C15.1129 6.61404 14.3636 4.8053 13.0301 3.47171C11.6965 2.13812 9.88772 1.38892 8.00174 1.38892ZM11.5573 11.2111C11.6752 11.329 11.7414 11.4889 11.7414 11.6556C11.7414 11.8223 11.6752 11.9822 11.5573 12.1C11.4394 12.2179 11.2795 12.2841 11.1129 12.2841C10.9462 12.2841 10.7863 12.2179 10.6684 12.1L8.00174 9.43336L5.33507 12.1089C5.27671 12.1673 5.20742 12.2136 5.13116 12.2452C5.0549 12.2768 4.97317 12.293 4.89063 12.293C4.80809 12.293 4.72635 12.2768 4.6501 12.2452C4.57384 12.2136 4.50455 12.1673 4.44618 12.1089C4.38782 12.0506 4.34152 11.9813 4.30993 11.905C4.27835 11.8287 4.26209 11.747 4.26209 11.6645C4.26209 11.5819 4.27835 11.5002 4.30993 11.4239C4.34152 11.3477 4.38782 11.2784 4.44618 11.22L7.11285 8.53558L4.37063 5.77114C4.25275 5.65326 4.18653 5.49339 4.18653 5.32669C4.18653 5.15999 4.25275 5.00012 4.37063 4.88225C4.4885 4.76437 4.64837 4.69815 4.81507 4.69815C4.98177 4.69815 5.14164 4.76437 5.25952 4.88225L8.00174 7.65558L10.744 4.91336C10.8023 4.855 10.8716 4.8087 10.9479 4.77711C11.0241 4.74552 11.1059 4.72927 11.1884 4.72927C11.2709 4.72927 11.3527 4.74552 11.4289 4.77711C11.5052 4.8087 11.5745 4.855 11.6328 4.91336C11.6912 4.97173 11.7375 5.04101 11.7691 5.11727C11.8007 5.19353 11.8169 5.27526 11.8169 5.3578C11.8169 5.44035 11.8007 5.52208 11.7691 5.59834C11.7375 5.67459 11.6912 5.74388 11.6328 5.80225L8.89063 8.53558L11.5573 11.2111Z" fill="#1A1724"/>
</g>
<defs>
<clipPath id="clip0_17663_9684">
<rect width="16" height="16" fill="white" transform="translate(0 0.5)"/>
</clipPath>
</defs>
</svg>
