<svg width="193" height="40" viewBox="0 0 193 40" fill="none" xmlns="http://www.w3.org/2000/svg">
<path fill-rule="evenodd" clip-rule="evenodd" d="M147.532 34.2239C147.567 34.4445 147.584 34.669 147.584 34.8951C147.584 35.4687 147.472 36.0367 147.254 36.5666C147.036 37.0965 146.716 37.578 146.313 37.9836C145.91 38.3891 145.432 38.7109 144.906 38.9304C144.379 39.1498 143.815 39.2628 143.245 39.2628C143.118 39.2622 142.991 39.2556 142.864 39.2436C142.985 39.2341 143.106 39.219 143.226 39.1993C143.369 39.1744 143.51 39.1425 143.649 39.1034C143.789 39.0646 143.926 39.0186 144.061 38.9659C144.196 38.9132 144.328 38.8535 144.457 38.7874C144.586 38.7215 144.711 38.649 144.833 38.5703C144.955 38.4917 145.072 38.4068 145.186 38.3163C145.299 38.2257 145.408 38.1295 145.512 38.0281C145.615 37.9268 145.714 37.8202 145.807 37.7088C145.9 37.5973 145.988 37.4813 146.07 37.3611C146.151 37.241 146.227 37.1169 146.296 36.9891C146.366 36.8613 146.429 36.73 146.485 36.5959C146.541 36.4618 146.591 36.3249 146.634 36.1859C146.677 36.0467 146.712 35.9054 146.741 35.7628C146.77 35.6199 146.791 35.4759 146.806 35.331C146.809 35.2937 146.813 35.2565 146.816 35.2192C146.814 35.2211 146.812 35.2227 146.811 35.2245C146.821 35.1151 146.826 35.005 146.827 34.8951C146.826 34.8304 146.824 34.7656 146.821 34.7011C146.821 34.7001 146.822 34.6989 146.823 34.6979C146.821 34.6604 146.819 34.6232 146.817 34.5862C146.806 34.4409 146.789 34.2962 146.764 34.1527C146.74 34.0092 146.708 33.867 146.669 33.7268C146.631 33.5864 146.585 33.448 146.533 33.3123C146.48 33.1767 146.421 33.0436 146.355 32.914C146.29 32.7842 146.218 32.6578 146.14 32.5351C146.062 32.4126 145.977 32.2942 145.887 32.18C145.797 32.0658 145.702 31.9564 145.601 31.852C145.5 31.7476 145.395 31.6483 145.284 31.5544C145.211 31.4928 145.136 31.4334 145.059 31.3766C145.057 31.3768 145.054 31.377 145.052 31.3772C145.015 31.3477 144.977 31.3186 144.938 31.2903C144.819 31.2081 144.696 31.132 144.569 31.0622C144.549 31.0526 144.53 31.043 144.511 31.0339C144.512 31.0335 144.513 31.0333 144.514 31.0331C144.405 30.9747 144.293 30.921 144.178 30.8721C144.045 30.8155 143.909 30.7655 143.771 30.7225C143.633 30.6794 143.493 30.6434 143.351 30.6143C143.209 30.5854 143.066 30.5636 142.922 30.5492C142.905 30.5481 142.888 30.5473 142.872 30.5467C142.996 30.5349 143.12 30.5286 143.245 30.5276C143.887 30.5276 144.514 30.6706 145.084 30.9393C145.976 30.8318 146.716 30.9385 147.228 31.2449C147.911 31.6546 148.2 32.4108 147.892 33.4185C147.81 33.6859 147.687 33.9555 147.532 34.2239ZM145.812 31.3739C145.989 31.5044 146.156 31.6489 146.313 31.8068C146.828 32.3253 147.201 32.9608 147.404 33.6515C147.418 33.6126 147.431 33.5742 147.443 33.5357C147.701 32.6928 147.468 32.0432 146.852 31.6747C146.579 31.5107 146.226 31.4096 145.812 31.3739ZM117.616 37.7917L114.266 37.7911V31.8868H114.335V31.8766H117.666L117.666 31.8868H117.776V31.889C118.095 31.9014 118.676 31.9704 119.111 32.2343C119.733 32.6114 120.081 33.0152 120.317 33.645C120.507 34.1539 120.505 34.5799 120.505 34.7636C120.505 34.7728 120.504 34.7813 120.504 34.7893L120.505 34.8892V34.915C120.505 35.0988 120.507 35.5245 120.317 36.0336C120.081 36.6633 119.733 37.0672 119.111 37.4441C118.675 37.7086 118.093 37.7774 117.774 37.7896V37.7919L117.616 37.7917ZM117.616 36.764H117.664C118.276 36.764 118.647 36.5735 119.024 36.1739C119.397 35.7787 119.483 35.191 119.484 34.8993V34.7787C119.482 34.4871 119.397 33.8996 119.024 33.5046C118.647 33.1049 118.278 32.9144 117.666 32.9144H115.276V36.7563L117.616 36.7634V36.764ZM143.667 37.5843C142.964 37.9677 141.88 38.416 140.608 38.4486C139.904 38.4781 139.306 38.3696 138.877 38.1124C138.193 37.7027 137.905 36.9451 138.213 35.9372C138.349 35.4936 138.602 35.043 138.919 34.6022C138.912 34.6997 138.908 34.7974 138.907 34.8951C138.908 35.0021 138.914 35.1092 138.923 35.2158C138.815 35.4185 138.725 35.621 138.664 35.8202C138.406 36.6631 138.637 37.3141 139.252 37.6828C139.494 37.8279 139.811 37.9125 140.162 37.9604C141.416 38.0143 142.603 37.5489 143.375 37.1519C143.348 37.0654 143.333 36.9734 143.333 36.8782C143.333 36.3753 143.738 35.9677 144.238 35.9677C144.737 35.9677 145.142 36.3753 145.142 36.8782C145.142 37.3808 144.737 37.7884 144.238 37.7884C144.021 37.7884 143.822 37.7119 143.667 37.5843ZM94.8524 34.3552H98.1028V35.2319H94.8524V34.3552ZM98.3228 31.8868V32.9246H94.0923V36.7532H98.3228V37.7911H93.082V31.8868H98.3228ZM129.193 32.1084C129.549 31.9189 130.012 31.8817 130.198 31.8868H134.419V32.9246H130.198C129.933 32.9246 129.463 33.0404 129.463 33.6297C129.463 34.2545 129.963 34.3552 130.198 34.3552H132.929C133.309 34.3552 133.731 34.4203 134.054 34.6273C134.458 34.8859 134.709 35.2976 134.709 36.053C134.709 36.8084 134.375 37.3196 133.931 37.5627C133.582 37.754 133.054 37.7945 132.859 37.7909L128.498 37.7911V36.7532H132.851C133.36 36.7526 133.739 36.5308 133.739 36.0003C133.739 35.3588 133.284 35.2319 132.929 35.2319H130.188C129.981 35.2302 129.507 35.1781 129.188 34.9799C128.783 34.728 128.403 34.2797 128.403 33.544C128.403 32.8086 128.748 32.3452 129.193 32.1084ZM121.237 31.8766H122.287L122.287 35.3124C122.282 35.577 122.357 36.1973 122.797 36.5064C123.306 36.8641 123.956 36.8613 124.373 36.8592H124.377C124.39 36.8592 124.404 36.859 124.417 36.859C124.431 36.859 124.444 36.8592 124.457 36.8592H124.461C124.879 36.8613 125.528 36.8641 126.038 36.5064C126.478 36.1973 126.552 35.577 126.548 35.3124V31.8766H127.598V35.4435C127.598 35.9775 127.455 36.6661 126.893 37.1916C126.287 37.7579 125.3 37.8607 124.457 37.8666C124.444 37.8666 124.431 37.8666 124.417 37.8666C124.404 37.8666 124.39 37.8666 124.377 37.8666C123.534 37.8607 122.548 37.7579 121.942 37.1916C121.38 36.6661 121.237 35.9775 121.237 35.4435V31.8766ZM99.1181 31.8868H100.508L102.754 34.0782L104.964 31.8868H106.289L103.374 34.7229L106.539 37.7911H105.114L102.649 35.3778L100.203 37.7911H98.883L102.033 34.7229L99.1181 31.8868ZM110.685 31.8868V31.889C111.004 31.9014 111.585 31.9704 112.02 32.2343C112.642 32.6114 112.99 33.0152 113.225 33.645C113.415 34.1539 113.414 34.5799 113.414 34.7634V34.7893L113.413 34.8892C113.413 34.8973 113.414 34.9059 113.414 34.915C113.414 35.0988 113.415 35.5245 113.225 36.0336C112.99 36.6633 112.642 37.0672 112.02 37.4441C111.584 37.7086 111.001 37.7774 110.683 37.7896V37.7919H109.003V37.7894C108.684 37.7772 108.103 37.708 107.668 37.4441C107.046 37.0672 106.698 36.6633 106.462 36.0336C106.272 35.5245 106.274 35.0988 106.274 34.915C106.274 34.9097 106.274 34.9042 106.274 34.8993V34.7785C106.274 34.7736 106.274 34.7687 106.274 34.7634C106.274 34.5799 106.272 34.1539 106.462 33.645C106.698 33.0152 107.046 32.6114 107.668 32.2343C108.104 31.97 108.686 31.901 109.005 31.889V31.8868H110.685ZM112.393 34.8993V34.7787C112.391 34.4869 112.306 33.8996 111.933 33.5046C111.556 33.1049 111.187 32.9144 110.575 32.9144H109.115C108.503 32.9144 108.132 33.1049 107.755 33.5046C107.378 33.9044 107.294 34.5013 107.294 34.7893V34.8892C107.294 35.1771 107.378 35.774 107.755 36.1739C108.131 36.5733 108.5 36.7638 109.111 36.764H110.573C111.185 36.764 111.556 36.5735 111.933 36.1739C112.306 35.7787 112.391 35.191 112.393 34.8993ZM173.492 32.2205L173.493 32.2185C173.611 32.0534 173.777 31.8192 174.019 31.8192C174.263 31.8192 174.441 32.0553 174.546 32.2205L177.873 37.7907H176.655L175.788 36.3037H173.012L173.492 35.4777H175.308L173.984 33.2471L171.325 37.7907H170.165L173.492 32.2205ZM184.532 32.112C184.888 31.9226 185.35 31.8853 185.536 31.8904H189.754V32.9274H185.529C185.263 32.9297 184.802 33.0485 184.802 33.6324C184.802 34.2522 185.294 34.3558 185.531 34.3572H188.265C188.645 34.3572 189.066 34.4223 189.389 34.6291C189.793 34.8875 190.044 35.299 190.044 36.0538C190.044 36.8086 189.71 37.3196 189.267 37.5625C188.918 37.7536 188.39 37.7941 188.195 37.7905L183.837 37.7907V36.7536H188.185C188.695 36.7536 189.075 36.532 189.075 36.0013C189.075 35.3601 188.62 35.2333 188.265 35.2333H185.526C185.319 35.2317 184.845 35.1796 184.527 34.9816C184.122 34.7298 183.742 34.2817 183.742 33.5467C183.742 32.8117 184.087 32.3485 184.532 32.112ZM156.939 31.89H161.192C161.777 31.89 162.644 31.9726 163.031 32.7986C163.149 33.1364 163.148 33.3615 163.148 33.4403V33.4478C163.148 33.8845 163.019 34.4036 162.34 34.6869C162.527 34.7577 163.242 35.0292 163.242 36.0086C163.242 36.7923 162.96 37.0825 162.703 37.3421C162.293 37.6962 161.944 37.7907 161.25 37.7907H156.939V31.89ZM157.97 32.9051V36.7758H160.981C161.555 36.7758 162.187 36.66 162.187 36.0086C162.187 35.3572 161.672 35.2416 161.402 35.2416H158.708V34.3564H161.402C161.672 34.3564 162.07 34.2384 162.07 33.6484C162.07 33.0701 161.707 32.9285 161.086 32.9285L157.97 32.9051ZM164.062 31.89H165.093V37.7907H164.062V31.89ZM168.958 37.7907H167.928V32.9285H165.702V31.89H171.161V32.9285H168.958V37.7907ZM179.384 31.89V36.7522H183.344V37.7907H178.354V31.89H179.384ZM149.629 31.89H153.448C154.303 31.89 154.924 31.9608 155.428 32.5038C155.909 33.0221 155.979 33.495 155.979 34.0495C155.979 34.6515 155.803 35.5837 154.772 36.0086H154.772L156.518 37.7907H155.086L153.588 36.1503H151.398V35.2652H153.812C154.257 35.2652 154.959 35.159 154.959 34.0495C154.959 33.0229 154.21 32.9167 153.812 32.9167H150.66V37.7907H149.629V31.89Z" fill="#F4F4F4"/>
<path d="M45.5395 34.3222C45.1183 34.3222 44.586 34.2902 43.9582 34.2342C43.3304 34.1782 42.6946 34.058 42.043 33.8819L42.9171 28.3262C43.3462 28.4622 43.7754 28.5503 44.2125 28.5984C44.6495 28.6384 44.9833 28.6624 45.2058 28.6624C46.215 28.6624 46.9461 28.3902 47.3911 27.8539C47.8361 27.3095 48.154 26.4289 48.3289 25.2121C48.3289 25.2121 49.8625 15.7097 50.832 9.68962C51.277 6.88773 53.6769 4.83838 56.49 4.83838C58.8024 4.83838 61.0751 4.83838 61.0751 4.83838L60.4158 9.00118C60.4158 9.00118 60.217 9.03317 59.9309 9.08921C58.8581 9.29735 58.0315 10.1539 57.8567 11.2346C57.1654 15.5015 55.4966 25.8525 55.4966 25.8525C55.1549 27.9339 54.6146 29.5911 53.8676 30.8319C53.1126 32.0727 52.0639 32.9693 50.7209 33.5057C49.3779 34.05 47.6453 34.3222 45.5395 34.3222Z" fill="#F4F4F4"/>
<path d="M67.8697 29.1285C66.1453 29.1285 64.4449 28.9284 62.7761 28.5361C61.1074 28.1438 59.7404 27.6155 58.6914 26.9591L60.8767 21.3393C61.8621 21.8116 63.0463 22.2439 64.421 22.6281C65.8037 23.0124 67.1706 23.2045 68.5374 23.2045C69.8645 23.2045 70.7705 23.0604 71.2632 22.7803C71.7559 22.4921 72.0338 22.1398 72.1053 21.7075C72.153 21.3473 72.0657 21.0351 71.8511 20.7789C71.6365 20.5227 71.1995 20.3306 70.5241 20.2185L66.3918 19.474C64.437 19.1138 62.919 18.2972 61.8303 17.0164C60.7416 15.7435 60.3604 14.1104 60.6703 12.125C60.9405 10.4999 61.5761 9.11502 62.5694 7.97826C63.5707 6.83349 64.8819 5.96091 66.503 5.3525C68.132 4.7441 70.0076 4.43188 72.1373 4.43188C73.6154 4.43188 75.0775 4.60797 76.5079 4.96021C77.9463 5.31245 79.0744 5.81685 79.9088 6.46529L77.6205 11.957C76.8576 11.5006 75.9515 11.1244 74.9105 10.8202C73.8695 10.516 72.6854 10.3638 71.3662 10.3638C70.2458 10.3638 69.3877 10.492 68.7917 10.7561C68.1957 11.0123 67.8541 11.4046 67.7667 11.9249C67.719 12.2131 67.8142 12.5173 68.0367 12.8375C68.2592 13.1498 68.7439 13.3819 69.483 13.51L73.5516 14.2225C75.6097 14.5827 77.1516 15.3993 78.1767 16.6641C79.1939 17.929 79.5433 19.5461 79.2334 21.5074C79.0109 22.9964 78.4229 24.3173 77.4693 25.47C76.5157 26.6228 75.2283 27.5195 73.6152 28.1599C72.002 28.8083 70.0868 29.1285 67.8697 29.1285Z" fill="#F4F4F4"/>
<path d="M80.3789 28.72L84.1455 4.83984H90.4711L95.1118 21.0668H93.9676L103.718 4.83984H110.036L106.269 28.72H99.7127L101.731 15.8153H103.345L95.2788 28.72H91.2735L87.2366 15.8153H88.9532L86.9349 28.72H80.3789Z" fill="#F4F4F4"/>
<path d="M118.815 29.1282C116.685 29.1282 114.913 28.7279 113.498 27.9273C112.084 27.1268 111.083 25.9981 110.487 24.5411C109.899 23.0841 109.756 21.3709 110.066 19.4096C110.36 17.5523 110.987 16.0073 111.949 14.7665C112.918 13.5256 114.134 12.589 115.62 11.9726C117.099 11.3482 118.735 11.0439 120.523 11.0439C122.677 11.0439 124.449 11.4442 125.84 12.2448C127.23 13.0453 128.216 14.1661 128.796 15.6151C129.384 17.056 129.519 18.7772 129.201 20.7625C128.907 22.6118 128.287 24.1568 127.334 25.4057C126.38 26.6465 125.18 27.5751 123.718 28.1996C122.264 28.816 120.627 29.1282 118.815 29.1282ZM119.18 23.9487C119.967 23.9487 120.619 23.6685 121.151 23.1161C121.676 22.5638 122.041 21.6671 122.24 20.4263C122.486 18.8412 122.399 17.7445 121.97 17.1361C121.548 16.5277 120.929 16.2234 120.126 16.2234C119.339 16.2234 118.68 16.4957 118.155 17.032C117.631 17.5764 117.265 18.481 117.067 19.7458C116.82 21.3229 116.9 22.4196 117.313 23.028C117.726 23.6444 118.354 23.9487 119.18 23.9487Z" fill="#F4F4F4"/>
<path d="M136.131 29.1283C134.557 29.1283 133.222 28.712 132.126 27.8715C131.029 27.0389 130.242 25.8862 129.773 24.4212C129.305 22.9562 129.209 21.283 129.503 19.4097C129.956 16.5838 130.981 14.4865 132.594 13.1096C134.208 11.7326 136.115 11.0441 138.316 11.0441C139.572 11.0441 140.676 11.3164 141.622 11.8687C142.576 12.4211 143.148 13.1415 143.322 14.0221H142.917L144.53 3.79126H151.531L147.598 28.7201H140.7L141.137 25.9422H141.677C141.209 26.8948 140.494 27.6633 139.54 28.2477C138.586 28.8321 137.45 29.1283 136.131 29.1283ZM138.753 23.9488C139.556 23.9488 140.239 23.6687 140.803 23.1163C141.36 22.5639 141.741 21.6673 141.948 20.4265C142.194 18.8414 142.091 17.7447 141.646 17.1363C141.193 16.5279 140.541 16.2236 139.691 16.2236C138.864 16.2236 138.173 16.4958 137.625 17.0322C137.076 17.5766 136.703 18.4811 136.496 19.746C136.25 21.3231 136.353 22.4198 136.798 23.0282C137.251 23.6446 137.903 23.9488 138.753 23.9488Z" fill="#F4F4F4"/>
<path d="M159.231 29.1282C156.966 29.1282 155.091 28.7038 153.613 27.8553C152.134 27.0147 151.077 25.8459 150.45 24.3729C149.822 22.8919 149.655 21.2028 149.949 19.3055C150.22 17.6324 150.776 16.1835 151.626 14.9506C152.476 13.7258 153.573 12.7651 154.908 12.0767C156.243 11.3882 157.769 11.0439 159.493 11.0439C161.289 11.0439 162.767 11.4363 163.935 12.2288C165.103 13.0133 165.93 14.086 166.422 15.4469C166.915 16.7998 167.018 18.3449 166.724 20.0821L166.526 21.3389H155.559L156.036 18.1528H161.782L161.106 18.8012C161.289 17.6885 161.21 16.8799 160.876 16.3756C160.542 15.8712 160.026 15.6151 159.326 15.6151C158.81 15.6151 158.373 15.7431 158.015 15.9993C157.658 16.2635 157.364 16.6157 157.141 17.056C156.918 17.4963 156.759 17.9846 156.672 18.529L156.402 20.2501C156.243 21.4269 156.45 22.3396 157.022 22.98C157.594 23.6205 158.675 23.9487 160.272 23.9487C160.963 23.9487 161.631 23.8606 162.267 23.6925C162.91 23.5244 163.61 23.2442 164.372 22.86L166.017 27.431C165.056 28.0234 163.999 28.4477 162.863 28.7199C161.718 28.9921 160.502 29.1282 159.231 29.1282Z" fill="#F4F4F4"/>
<path d="M168.203 28.7201L172.137 3.79126H179.13L175.196 28.7201H168.203Z" fill="#F4F4F4"/>
<path d="M183.635 29.1282C182.022 29.1282 180.575 28.9841 179.304 28.6879C178.024 28.3917 176.96 27.9994 176.109 27.5031L177.858 22.964C178.708 23.3963 179.669 23.7485 180.75 24.0287C181.823 24.3169 182.88 24.453 183.905 24.453C184.628 24.453 185.145 24.365 185.471 24.1808C185.796 24.0047 185.979 23.7645 186.027 23.4683C186.067 23.2042 186.011 22.988 185.844 22.8279C185.669 22.6678 185.423 22.5717 185.081 22.5237L181.751 22.0113C180.162 21.7632 179.026 21.1788 178.342 20.2501C177.659 19.3295 177.428 18.1448 177.651 16.6958C177.858 15.479 178.342 14.4463 179.113 13.5977C179.892 12.7491 180.885 12.1167 182.109 11.6844C183.333 11.2521 184.684 11.0439 186.162 11.0439C187.441 11.0439 188.657 11.1641 189.825 11.4122C190.993 11.6604 191.987 12.0767 192.821 12.6691L190.938 17.0721C190.31 16.6878 189.539 16.3675 188.633 16.1034C187.727 15.8472 186.901 15.7112 186.162 15.7112C185.327 15.7112 184.739 15.8072 184.382 15.9993C184.016 16.1914 183.817 16.4396 183.77 16.7278C183.754 16.9359 183.809 17.1281 183.945 17.3042C184.072 17.4883 184.318 17.6004 184.684 17.6484L188.013 18.1528C189.627 18.3769 190.779 18.9373 191.47 19.8339C192.17 20.7225 192.392 21.9233 192.146 23.4364C191.947 24.7492 191.446 25.8219 190.652 26.6705C189.857 27.5191 188.848 28.1435 187.64 28.5357C186.432 28.928 185.097 29.1282 183.635 29.1282Z" fill="#F4F4F4"/>
<path d="M81.4683 37.8624C81.0702 37.8624 80.7371 37.7621 80.4667 37.5616C80.1962 37.3589 80.0318 37.0865 79.9734 36.7444L80.0664 36.7247L79.8999 37.7752H78.9805L80.0535 30.9888H80.9772L80.4775 34.1575L80.3303 34.1771C80.4883 33.8284 80.7176 33.5538 81.0162 33.3512C81.3169 33.1463 81.676 33.0461 82.0978 33.0461C82.5262 33.0461 82.8831 33.1463 83.1708 33.3512C83.4564 33.5538 83.6597 33.8459 83.7787 34.2229C83.8999 34.5999 83.9171 35.051 83.8306 35.5762C83.7095 36.3216 83.4369 36.8904 83.0085 37.2783C82.578 37.6684 82.0654 37.8624 81.4683 37.8624ZM81.3558 37.1301C81.7517 37.1301 82.087 36.9906 82.3639 36.7138C82.6386 36.4349 82.8204 36.0252 82.9069 35.4825C82.9977 34.9094 82.9437 34.4822 82.7446 34.2011C82.5478 33.92 82.2406 33.7783 81.8209 33.7783C81.4294 33.7783 81.0941 33.9178 80.8107 34.1945C80.5294 34.4713 80.3434 34.8788 80.2568 35.4171C80.1725 35.9903 80.2309 36.4196 80.4321 36.7029C80.6354 36.9863 80.9426 37.1301 81.3558 37.1301Z" fill="#F4F4F4"/>
<path d="M83.7261 39.8696L83.5703 39.1155C83.871 39.0523 84.1241 38.9782 84.3296 38.8911C84.5373 38.8061 84.7147 38.6927 84.8661 38.5554C85.0175 38.4181 85.156 38.2416 85.2836 38.0281L85.5973 37.4811L85.5541 37.858L84.2863 33.1333H85.249L86.1965 37.0059H85.9478L88.1176 33.1333H89.0954L86.2031 38.1022C86.0192 38.416 85.8353 38.6753 85.6492 38.8823C85.4632 39.0915 85.2707 39.2594 85.0738 39.388C84.8748 39.5187 84.6649 39.619 84.4443 39.6931C84.2236 39.7672 83.9835 39.826 83.7261 39.8696Z" fill="#F4F4F4"/>
<path fill-rule="evenodd" clip-rule="evenodd" d="M19.2015 29.7126C20.8646 30.4722 22.4752 30.9616 23.9558 31.1518C25.8052 31.3893 27.4333 31.1619 28.6157 30.3053L30.3507 32.0525C28.6851 33.4168 26.3548 33.9314 23.6482 33.5837C19.6585 33.0717 14.783 30.6605 10.315 26.6893C9.91488 26.3334 9.44971 26.2868 9.08519 26.557L8.48559 27.0023L6.67867 25.143L7.06819 24.6712C7.45521 24.2819 7.31515 23.7163 6.95314 23.3038C3.00541 18.8003 0.609509 13.8836 0.100567 9.86192C-0.244562 7.13525 0.266255 4.78776 1.62051 3.10981L3.35492 4.85767C2.5046 6.04874 2.27889 7.6889 2.5146 9.55202C2.70342 11.0435 3.18923 12.6661 3.94326 14.3415C4.81109 13.0137 5.81397 11.6898 6.94439 10.3992C7.29765 9.99608 7.34391 9.52746 7.07506 9.16088L6.63302 8.55621L8.47934 6.73592L8.94764 7.12832C9.33404 7.5182 9.89487 7.37712 10.305 7.01243C11.5893 5.86986 12.9073 4.85641 14.2284 3.98028C12.5653 3.22066 10.9546 2.73063 9.47409 2.54104C7.62465 2.30296 5.99653 2.53097 4.81421 3.38758L3.07919 1.64034C4.74481 0.276066 7.07506 -0.23853 9.78171 0.109153C11.9063 0.381882 14.2828 1.19314 16.7149 2.49192C19.1471 1.19314 21.5236 0.381882 23.6482 0.109153C26.3548 -0.23853 28.6851 0.276066 30.3507 1.64034L28.6157 3.38758C27.4333 2.53097 25.8052 2.30296 23.9558 2.54104C20.3138 3.0084 15.8884 5.2885 11.8162 8.93854C11.543 9.18419 10.5476 9.7561 9.8336 9.49408C9.59289 9.4059 9.41032 9.59108 9.49848 9.83357C9.76483 10.5667 9.07332 11.6759 8.86511 11.9115C7.4402 13.5246 6.226 15.1931 5.24813 16.8464C6.226 18.4998 7.4402 20.1683 8.86511 21.7814C9.10895 22.0566 9.67667 23.0588 9.41657 23.7787C9.32904 24.0212 9.51286 24.2051 9.75357 24.1163C10.4813 23.848 11.5824 24.5446 11.8162 24.7543C13.4174 26.1898 15.0737 27.413 16.7149 28.3981C18.3562 27.413 20.0124 26.1898 21.6137 24.7543C21.8475 24.5446 22.9485 23.848 23.6763 24.1163C23.917 24.2051 24.1008 24.0212 24.0133 23.7787C23.7532 23.0588 24.3209 22.0566 24.5641 21.7814C25.7827 20.4026 26.8462 18.9836 27.7403 17.5683C27.8923 17.3277 29.7192 13.8105 29.8255 13.5479C30.3876 12.154 30.7565 10.8067 30.9153 9.55202C31.151 7.6889 30.9253 6.04874 30.075 4.85767L31.8094 3.10981C33.1636 4.78776 33.6744 7.13525 33.3293 9.86192C32.8204 13.8836 30.4245 18.8003 26.4767 23.3038C26.1147 23.7163 25.9747 24.2819 26.3617 24.6712L26.7512 25.143L24.9443 27.0023L24.3441 26.557C23.9802 26.2868 23.515 26.3334 23.1148 26.6893C21.8337 27.8281 20.5189 28.8384 19.2015 29.7126Z" fill="#DA9B19"/>
<path fill-rule="evenodd" clip-rule="evenodd" d="M3.48559 20.4465C2.9904 21.7327 2.66153 22.9766 2.5146 24.1406C2.27889 26.0038 2.5046 27.6439 3.35492 28.835L1.62051 30.5828C0.266255 28.9043 -0.244562 26.5574 0.100567 23.8307C0.33253 21.9991 0.955888 19.9817 1.93876 17.9019C2.39768 18.7471 2.91412 19.5981 3.48559 20.4465Z" fill="url(#paint0_linear_17724_4540)"/>
<path fill-rule="evenodd" clip-rule="evenodd" d="M13.14 30.1738C13.9822 30.7495 14.8269 31.2692 15.6654 31.7321C13.6015 32.7222 11.5988 33.3502 9.78064 33.5839C7.074 33.9316 4.74375 33.417 3.07812 32.0527L4.81315 30.3055C5.99547 31.1621 7.62358 31.3895 9.47303 31.152C10.6285 31.004 11.8633 30.6727 13.14 30.1738Z" fill="url(#paint1_linear_17724_4540)"/>
<path fill-rule="evenodd" clip-rule="evenodd" d="M29.9766 20.5271C30.5499 19.6781 31.0682 18.8259 31.5296 17.98C32.4913 20.0314 33.1021 22.0218 33.3309 23.8308C33.6761 26.5574 33.1653 28.9043 31.811 30.5829L30.0766 28.835C30.9269 27.6439 31.1526 26.0038 30.9169 24.1406C30.7731 23.0012 30.4549 21.785 29.9766 20.5271Z" fill="url(#paint2_linear_17724_4540)"/>
<path fill-rule="evenodd" clip-rule="evenodd" d="M28.1811 16.8462C27.2033 15.1929 25.989 13.5244 24.5635 11.9113C24.3559 11.6757 23.6644 10.5665 23.9308 9.83337C24.0183 9.59088 23.8364 9.4057 23.5956 9.49388C22.881 9.7559 21.8863 9.18399 21.613 8.93834C20.3357 7.79325 19.0233 6.78296 17.7109 5.92131C18.5394 5.43506 19.3634 5.01053 20.1737 4.65088C21.1679 5.36199 22.1557 6.15058 23.1242 7.01223C23.5338 7.37692 24.0952 7.518 24.4816 7.12812L24.9499 6.73572L26.7962 8.55602L26.3536 9.16068C26.0853 9.52726 26.1316 9.99588 26.4849 10.399C27.6153 11.6896 28.6182 13.0135 29.486 14.3413" fill="url(#paint3_linear_17724_4540)"/>
<defs>
<linearGradient id="paint0_linear_17724_4540" x1="1.74087" y1="27.9588" x2="6.28253" y2="23.2495" gradientUnits="userSpaceOnUse">
<stop stop-color="#DA9B19"/>
<stop offset="0.53" stop-color="#DA9B19" stop-opacity="0.776471"/>
<stop offset="1" stop-color="#DA9B19" stop-opacity="0"/>
</linearGradient>
<linearGradient id="paint1_linear_17724_4540" x1="1.73981" y1="27.9592" x2="6.28147" y2="23.2499" gradientUnits="userSpaceOnUse">
<stop stop-color="#DA9B19"/>
<stop offset="0.53" stop-color="#DA9B19" stop-opacity="0.776471"/>
<stop offset="1" stop-color="#DA9B19" stop-opacity="0"/>
</linearGradient>
<linearGradient id="paint2_linear_17724_4540" x1="32.3395" y1="24.2814" x2="30.2943" y2="20.0217" gradientUnits="userSpaceOnUse">
<stop stop-color="#DA9B19"/>
<stop offset="1" stop-color="#DA9B19" stop-opacity="0"/>
</linearGradient>
<linearGradient id="paint3_linear_17724_4540" x1="24.6868" y1="9.9757" x2="19.0917" y2="5.18882" gradientUnits="userSpaceOnUse">
<stop stop-color="#DA9B19"/>
<stop offset="0.49" stop-color="#DA9B19" stop-opacity="0.741176"/>
<stop offset="1" stop-color="#DA9B19" stop-opacity="0"/>
</linearGradient>
</defs>
</svg>
