<svg width="12" height="12" viewBox="0 0 12 12" fill="none" xmlns="http://www.w3.org/2000/svg">
<path d="M2.60057 2.87012H1.96679C1.63061 2.87012 1.3082 3.00366 1.07048 3.24138C0.832766 3.4791 0.699219 3.80151 0.699219 4.13769V9.84175C0.699219 10.1779 0.832766 10.5003 1.07048 10.7381C1.3082 10.9758 1.63061 11.1093 1.96679 11.1093H7.67085C8.00703 11.1093 8.32945 10.9758 8.56716 10.7381C8.80488 10.5003 8.93842 10.1779 8.93842 9.84175V9.20797" stroke="#9F9FBC" stroke-linecap="round" stroke-linejoin="round"/>
<path d="M8.30368 1.6026L10.205 3.50395M11.0828 2.60715C11.3324 2.35753 11.4727 2.01898 11.4727 1.66598C11.4727 1.31297 11.3324 0.974421 11.0828 0.724807C10.8332 0.475193 10.4947 0.334961 10.1417 0.334961C9.78865 0.334961 9.4501 0.475193 9.20049 0.724807L3.86719 6.03909V7.94045H5.76854L11.0828 2.60715Z" stroke="#9F9FBC" stroke-linecap="round" stroke-linejoin="round"/>
</svg>
