<svg width="13" height="13" viewBox="0 0 13 13" fill="none" xmlns="http://www.w3.org/2000/svg">
<path fill-rule="evenodd" clip-rule="evenodd" d="M0.328125 6.50003C0.328125 3.00122 3.1643 0.165039 6.66312 0.165039C10.1619 0.165039 12.9981 3.00122 12.9981 6.50003C12.9981 9.99885 10.1619 12.835 6.66312 12.835C3.1643 12.835 0.328125 9.99885 0.328125 6.50003ZM6.66312 1.43204C5.319 1.43204 4.02994 1.96599 3.0795 2.91642C2.12907 3.86685 1.59512 5.15592 1.59512 6.50003C1.59512 7.84415 2.12907 9.13321 3.0795 10.0836C4.02994 11.0341 5.319 11.568 6.66312 11.568C8.00723 11.568 9.2963 11.0341 10.2467 10.0836C11.1972 9.13321 11.7311 7.84415 11.7311 6.50003C11.7311 5.15592 11.1972 3.86685 10.2467 2.91642C9.2963 1.96599 8.00723 1.43204 6.66312 1.43204Z" fill="#DA9B1A"/>
<path fill-rule="evenodd" clip-rule="evenodd" d="M7.29778 3.33247C7.29778 3.16446 7.23103 3.00333 7.11223 2.88452C6.99342 2.76572 6.83229 2.69897 6.66428 2.69897C6.49626 2.69897 6.33513 2.76572 6.21633 2.88452C6.09752 3.00333 6.03078 3.16446 6.03078 3.33247V5.86647H3.49678C3.32877 5.86647 3.16763 5.93321 3.04883 6.05202C2.93002 6.17082 2.86328 6.33196 2.86328 6.49997C2.86328 6.66798 2.93002 6.82912 3.04883 6.94792C3.16763 7.06673 3.32877 7.13347 3.49678 7.13347H6.03078V9.66747C6.03078 9.83548 6.09752 9.99661 6.21633 10.1154C6.33513 10.2342 6.49626 10.301 6.66428 10.301C6.83229 10.301 6.99342 10.2342 7.11223 10.1154C7.23103 9.99661 7.29778 9.83548 7.29778 9.66747V7.13347H9.83177C9.99979 7.13347 10.1609 7.06673 10.2797 6.94792C10.3985 6.82912 10.4653 6.66798 10.4653 6.49997C10.4653 6.33196 10.3985 6.17082 10.2797 6.05202C10.1609 5.93321 9.99979 5.86647 9.83177 5.86647H7.29778V3.33247Z" fill="#DA9B1A"/>
</svg>
