<svg width="114" height="32" viewBox="0 0 114 32" fill="none" xmlns="http://www.w3.org/2000/svg">
<path d="M97.3047 26.9657V23.5588H98.7665C99.1532 23.5588 99.4871 23.6204 99.764 23.7396C100.041 23.8629 100.252 24.0479 100.399 24.2986C100.55 24.5452 100.623 24.8698 100.623 25.2644C100.623 25.6548 100.55 25.9753 100.399 26.2259C100.252 26.4766 100.041 26.6657 99.764 26.7849C99.4871 26.9041 99.1532 26.9657 98.7665 26.9657H97.3047ZM97.9195 26.4889H98.7582C98.9536 26.4889 99.1287 26.4641 99.2794 26.4189C99.4341 26.3737 99.5644 26.304 99.6662 26.2054C99.772 26.1109 99.8495 25.9877 99.9065 25.8397C99.9594 25.6959 99.9838 25.519 99.9838 25.3176V25.2149C99.9838 25.0094 99.9594 24.8328 99.9065 24.6848C99.8495 24.5369 99.772 24.4136 99.6662 24.3191C99.5644 24.2246 99.4341 24.1505 99.2794 24.1053C99.1287 24.0601 98.9536 24.0353 98.7582 24.0353H97.9195V26.4889Z" fill="white"/>
<path d="M102.411 27.0269C102.113 27.0269 101.865 26.9775 101.665 26.8789C101.466 26.7802 101.311 26.6323 101.209 26.431C101.108 26.2255 101.055 25.9705 101.055 25.6582C101.055 25.3458 101.108 25.087 101.209 24.8857C101.311 24.6884 101.466 24.5365 101.67 24.442C101.869 24.3433 102.121 24.2939 102.423 24.2939C102.7 24.2939 102.932 24.3391 103.115 24.4336C103.302 24.5281 103.441 24.672 103.538 24.8651C103.632 25.0583 103.681 25.2967 103.681 25.5885V25.7898H101.645C101.653 25.9747 101.686 26.1267 101.739 26.2541C101.796 26.3774 101.877 26.4678 101.991 26.5254C102.101 26.5829 102.244 26.6117 102.419 26.6117C102.524 26.6117 102.618 26.5995 102.704 26.5748C102.789 26.5502 102.862 26.5131 102.919 26.4679C102.981 26.4186 103.025 26.3612 103.058 26.2913C103.09 26.2256 103.107 26.1474 103.107 26.0611H103.669C103.669 26.2173 103.64 26.3529 103.583 26.4721C103.522 26.5913 103.437 26.6939 103.327 26.7761C103.213 26.8542 103.078 26.9159 102.923 26.9611C102.773 27.0022 102.602 27.0269 102.411 27.0269ZM101.657 25.4116H103.078C103.078 25.2801 103.066 25.1733 103.033 25.087C103.001 24.9966 102.956 24.9268 102.899 24.8693C102.838 24.8118 102.769 24.7748 102.687 24.7502C102.606 24.7255 102.516 24.7091 102.411 24.7091C102.26 24.7091 102.125 24.7378 102.02 24.7871C101.91 24.8364 101.824 24.9105 101.767 25.0173C101.706 25.1201 101.67 25.2513 101.657 25.4116Z" fill="white"/>
<path d="M105.284 27.0276C105.085 27.0276 104.906 27.007 104.751 26.9659C104.596 26.9248 104.47 26.8714 104.364 26.8016C104.262 26.7317 104.185 26.6494 104.132 26.5508C104.079 26.4522 104.051 26.3454 104.051 26.2262C104.051 26.2098 104.051 26.1933 104.055 26.1809C104.055 26.1686 104.055 26.1564 104.055 26.1482H104.625V26.2015C104.625 26.3042 104.657 26.3864 104.718 26.4481C104.78 26.5097 104.865 26.5509 104.971 26.5755C105.073 26.6002 105.191 26.6124 105.313 26.6124C105.423 26.6124 105.525 26.6002 105.618 26.5755C105.712 26.5509 105.789 26.5137 105.85 26.4644C105.911 26.4151 105.944 26.3534 105.944 26.2753C105.944 26.1767 105.903 26.0986 105.826 26.0493C105.749 25.9959 105.647 25.9509 105.525 25.9221C105.398 25.8893 105.268 25.8564 105.134 25.8194C105.012 25.7906 104.889 25.7575 104.771 25.7205C104.649 25.6876 104.543 25.6426 104.45 25.585C104.352 25.5275 104.275 25.4575 104.218 25.3712C104.157 25.2849 104.128 25.1782 104.128 25.0508C104.128 24.9275 104.157 24.8207 104.218 24.7262C104.275 24.6358 104.356 24.5575 104.462 24.4918C104.568 24.4301 104.69 24.3808 104.837 24.348C104.983 24.3151 105.142 24.2988 105.313 24.2988C105.492 24.2988 105.655 24.3151 105.793 24.3521C105.932 24.385 106.054 24.4344 106.148 24.5001C106.245 24.5618 106.323 24.6358 106.372 24.7262C106.424 24.8125 106.449 24.9069 106.449 25.0055C106.449 25.026 106.449 25.0466 106.449 25.0671C106.445 25.0877 106.445 25.1041 106.445 25.1082H105.883V25.063C105.883 24.9972 105.863 24.9398 105.822 24.8864C105.781 24.833 105.716 24.7876 105.631 24.7547C105.545 24.7219 105.431 24.7056 105.284 24.7056C105.191 24.7056 105.105 24.7139 105.032 24.7303C104.959 24.7427 104.898 24.7632 104.849 24.792C104.804 24.8166 104.767 24.8494 104.743 24.8864C104.719 24.9234 104.706 24.9645 104.706 25.0097C104.706 25.0878 104.739 25.1452 104.8 25.1863C104.857 25.2274 104.938 25.2602 105.04 25.289C105.138 25.3178 105.244 25.3508 105.358 25.3837C105.492 25.4166 105.626 25.4494 105.761 25.4823C105.895 25.5193 106.021 25.5646 106.139 25.6139C106.253 25.6673 106.347 25.7413 106.42 25.8358C106.49 25.9262 106.526 26.0495 106.526 26.2057C106.526 26.3495 106.498 26.4728 106.433 26.5797C106.372 26.6865 106.282 26.7685 106.172 26.8343C106.058 26.9001 105.928 26.9453 105.777 26.9781C105.626 27.011 105.464 27.0276 105.284 27.0276Z" fill="white"/>
<path d="M107.086 23.9039V23.3738H107.656V23.9039H107.086ZM107.086 26.9656V24.3518H107.656V26.9656H107.086Z" fill="white"/>
<path d="M108.882 27.8693C108.752 27.8693 108.626 27.8445 108.512 27.7952C108.393 27.7458 108.3 27.6721 108.231 27.5817C108.161 27.4871 108.129 27.376 108.129 27.2445C108.129 27.0966 108.174 26.9776 108.263 26.8872C108.353 26.7968 108.459 26.7269 108.581 26.6817C108.491 26.6447 108.422 26.5911 108.369 26.5253C108.312 26.4555 108.288 26.3734 108.288 26.2871C108.288 26.1638 108.337 26.065 108.434 25.9869C108.536 25.9129 108.65 25.8598 108.784 25.8392C108.654 25.7611 108.556 25.6666 108.483 25.5515C108.41 25.4365 108.377 25.3049 108.377 25.1569C108.377 24.9843 108.422 24.8323 108.512 24.7049C108.605 24.5775 108.744 24.4746 108.923 24.4047C109.106 24.3307 109.326 24.2939 109.591 24.2939C109.705 24.2939 109.81 24.3021 109.912 24.3145C110.014 24.3309 110.104 24.3515 110.185 24.3803C110.315 24.3186 110.405 24.2486 110.462 24.1623C110.515 24.076 110.547 23.9981 110.56 23.9282H111.121C111.121 24.0351 111.097 24.1334 111.048 24.2198C110.999 24.3102 110.93 24.3844 110.845 24.4419C110.759 24.4995 110.653 24.5405 110.531 24.561C110.625 24.6391 110.694 24.7254 110.739 24.8282C110.784 24.9268 110.808 25.0378 110.808 25.1569C110.808 25.3296 110.763 25.4816 110.674 25.609C110.588 25.7405 110.454 25.8391 110.275 25.9131C110.095 25.987 109.876 26.02 109.615 26.02H109.163C109.078 26.02 109.004 26.0404 108.951 26.0733C108.898 26.1062 108.87 26.1555 108.87 26.2213C108.87 26.2788 108.898 26.324 108.947 26.361C109 26.3979 109.069 26.4146 109.155 26.4146H110.376C110.592 26.4146 110.767 26.476 110.906 26.6034C111.048 26.7308 111.117 26.8954 111.117 27.0927C111.117 27.2406 111.077 27.3719 110.991 27.4911C110.91 27.6062 110.796 27.7008 110.645 27.7666C110.494 27.8365 110.324 27.8693 110.128 27.8693H108.882ZM109.069 27.4869H110.124C110.201 27.4869 110.271 27.4746 110.332 27.4458C110.397 27.4212 110.446 27.3844 110.482 27.3351C110.519 27.2858 110.539 27.2324 110.539 27.1749C110.539 27.0762 110.503 26.998 110.437 26.9405C110.368 26.8829 110.283 26.8541 110.185 26.8541H109.069C108.968 26.8541 108.882 26.8872 108.813 26.9488C108.74 27.0105 108.707 27.0844 108.707 27.1749C108.707 27.2653 108.74 27.3434 108.809 27.4009C108.878 27.4584 108.964 27.4869 109.069 27.4869ZM109.595 25.6501C109.81 25.6501 109.973 25.6048 110.079 25.5185C110.185 25.4281 110.238 25.309 110.238 25.1569C110.238 25.0008 110.185 24.8815 110.079 24.7993C109.973 24.713 109.81 24.6718 109.595 24.6718C109.379 24.6718 109.216 24.713 109.11 24.7993C109.004 24.8815 108.947 25.0008 108.947 25.1569C108.947 25.2556 108.972 25.3459 109.017 25.4199C109.065 25.4939 109.135 25.5515 109.232 25.5885C109.33 25.6296 109.452 25.6501 109.595 25.6501Z" fill="white"/>
<path d="M111.559 26.9652V24.3514H112.035L112.084 24.7255H112.12C112.194 24.6309 112.275 24.5486 112.369 24.4869C112.467 24.4253 112.572 24.3759 112.686 24.3431C112.804 24.3102 112.931 24.2939 113.069 24.2939C113.256 24.2939 113.415 24.3228 113.558 24.3803C113.696 24.4378 113.806 24.5322 113.883 24.6596C113.965 24.7912 114.001 24.9639 114.001 25.1817V26.9652H113.431V25.2639C113.431 25.1612 113.415 25.0789 113.387 25.0131C113.362 24.9474 113.322 24.8938 113.269 24.8568C113.22 24.8157 113.159 24.7872 113.09 24.7707C113.016 24.7543 112.939 24.746 112.857 24.746C112.723 24.746 112.605 24.7748 112.495 24.8324C112.385 24.8899 112.3 24.972 112.235 25.0748C112.165 25.1775 112.133 25.2966 112.133 25.4363V26.9652H111.559Z" fill="white"/>
<path d="M98.7048 32.0002C98.4971 32.0002 98.3016 31.9797 98.1103 31.9427C97.9189 31.9057 97.7479 31.8441 97.6013 31.7578C97.4548 31.6756 97.3367 31.5644 97.2553 31.437C97.1698 31.3055 97.125 31.1493 97.125 30.9644C97.125 30.948 97.129 30.9275 97.129 30.9111C97.133 30.8906 97.1331 30.874 97.1331 30.8617H97.748C97.748 30.8699 97.748 30.8864 97.748 30.9069C97.7439 30.9275 97.7438 30.944 97.7438 30.9564C97.7438 31.0797 97.7846 31.1822 97.866 31.2685C97.9474 31.3548 98.0614 31.4206 98.2039 31.4617C98.3505 31.5069 98.5175 31.5276 98.7048 31.5276C98.8066 31.5276 98.9082 31.5235 99.0019 31.5112C99.0955 31.4989 99.1852 31.478 99.2625 31.4534C99.344 31.4287 99.4131 31.4001 99.4701 31.359C99.5312 31.322 99.576 31.2769 99.6086 31.2235C99.6412 31.1701 99.6574 31.1082 99.6574 31.0424C99.6574 30.9356 99.6249 30.8452 99.5557 30.7753C99.4864 30.7095 99.3968 30.6481 99.2788 30.6029C99.1648 30.5577 99.0346 30.5166 98.888 30.4796C98.7455 30.4426 98.5948 30.4055 98.4401 30.3685C98.2854 30.3356 98.1347 30.2904 97.9881 30.241C97.8456 30.1917 97.7153 30.1301 97.5972 30.0603C97.4832 29.9904 97.3897 29.9 97.3205 29.7931C97.2553 29.6822 97.2187 29.5506 97.2187 29.3986C97.2187 29.2465 97.2552 29.1152 97.3244 29.0001C97.3937 28.885 97.4954 28.7863 97.6298 28.7083C97.7601 28.6302 97.9189 28.5728 98.1022 28.5317C98.2854 28.4947 98.4931 28.4739 98.7251 28.4739C98.9246 28.4739 99.1118 28.4906 99.2869 28.5317C99.466 28.5687 99.6208 28.6261 99.7511 28.7083C99.8855 28.7863 99.9872 28.889 100.065 29.0081C100.138 29.1314 100.179 29.2795 100.179 29.448V29.5055H99.5638V29.4396C99.5638 29.3369 99.5313 29.2465 99.458 29.1725C99.3888 29.0985 99.291 29.0454 99.1689 29.0043C99.0426 28.9632 98.8961 28.9465 98.7332 28.9465C98.5378 28.9465 98.3749 28.9631 98.2405 28.9959C98.1102 29.0329 98.0085 29.0781 97.9393 29.1398C97.8742 29.2014 97.8375 29.2753 97.8375 29.3616C97.8375 29.4562 97.8741 29.5385 97.9433 29.6002C98.0125 29.6577 98.1062 29.711 98.2202 29.7562C98.3382 29.7973 98.4686 29.8342 98.6111 29.8712C98.7577 29.904 98.9083 29.9412 99.059 29.9823C99.2137 30.0192 99.3603 30.0605 99.5068 30.1139C99.6534 30.1632 99.7836 30.2248 99.8976 30.2947C100.016 30.3686 100.105 30.4591 100.179 30.566C100.248 30.6728 100.28 30.8041 100.28 30.9602C100.28 31.2068 100.215 31.4041 100.077 31.5603C99.9425 31.7124 99.7552 31.8234 99.5191 31.8933C99.2789 31.9631 99.0101 32.0002 98.7048 32.0002Z" fill="white"/>
<path d="M101.646 31.9994C101.48 31.9994 101.349 31.9706 101.256 31.9131C101.162 31.8514 101.097 31.7774 101.06 31.687C101.019 31.5966 100.999 31.498 100.999 31.3994V29.7555H100.637V29.3281H101.011L101.117 28.5964H101.573V29.3281H102.098V29.7555H101.573V31.3377C101.573 31.4158 101.593 31.4735 101.63 31.5104C101.667 31.5515 101.728 31.5721 101.813 31.5721H102.098V31.9172C102.062 31.9337 102.017 31.9459 101.964 31.9542C101.911 31.9665 101.854 31.9787 101.801 31.9869C101.744 31.9951 101.695 31.9994 101.646 31.9994Z" fill="white"/>
<path d="M103.515 31.9999C103.238 31.9999 103.01 31.9301 102.839 31.7986C102.664 31.663 102.578 31.4326 102.578 31.108V29.3286H103.152V31.03C103.152 31.1286 103.164 31.2108 103.193 31.2807C103.221 31.3465 103.258 31.3998 103.311 31.4367C103.364 31.4778 103.425 31.5067 103.494 31.5231C103.563 31.5396 103.641 31.5478 103.726 31.5478C103.857 31.5478 103.979 31.519 104.085 31.4615C104.195 31.4039 104.284 31.3217 104.349 31.2149C104.414 31.1121 104.447 30.9928 104.447 30.8572V29.3286H105.021V31.9383H104.553L104.504 31.5684H104.463C104.394 31.6629 104.313 31.7409 104.215 31.8066C104.121 31.8683 104.015 31.9176 103.897 31.9505C103.783 31.9833 103.657 31.9999 103.515 31.9999Z" fill="white"/>
<path d="M106.758 31.9999C106.521 31.9999 106.318 31.9506 106.143 31.8561C105.972 31.7574 105.837 31.6096 105.744 31.4082C105.65 31.2068 105.605 30.9437 105.605 30.6232C105.605 30.3067 105.65 30.0518 105.748 29.8545C105.842 29.6532 105.976 29.5095 106.143 29.4108C106.314 29.3163 106.509 29.267 106.729 29.267C106.859 29.267 106.978 29.2793 107.087 29.3081C107.197 29.3327 107.295 29.3738 107.385 29.4314C107.47 29.4889 107.544 29.5586 107.601 29.6449H107.641V28.3503H108.211V31.9383H107.743L107.69 31.5806H107.649C107.556 31.7203 107.429 31.8231 107.271 31.893C107.116 31.9629 106.945 31.9999 106.758 31.9999ZM106.916 31.552C107.087 31.552 107.222 31.5192 107.328 31.4493C107.433 31.3835 107.511 31.2848 107.564 31.1533C107.613 31.0218 107.641 30.8613 107.641 30.6723V30.6026C107.641 30.4465 107.625 30.3068 107.588 30.1958C107.556 30.0849 107.507 29.9902 107.446 29.9204C107.385 29.8505 107.307 29.7972 107.222 29.7643C107.132 29.7314 107.034 29.7149 106.92 29.7149C106.754 29.7149 106.615 29.7438 106.509 29.8054C106.403 29.8671 106.322 29.9616 106.273 30.0931C106.224 30.2205 106.2 30.3888 106.2 30.5943V30.6848C106.2 30.8862 106.224 31.0548 106.277 31.1822C106.33 31.3096 106.407 31.404 106.513 31.4615C106.615 31.5231 106.75 31.552 106.916 31.552Z" fill="white"/>
<path d="M108.957 28.8766V28.3503H109.531V28.8766H108.957ZM108.957 31.9383V29.3286H109.531V31.9383H108.957Z" fill="white"/>
<path d="M111.502 32C111.201 32 110.944 31.9506 110.736 31.852C110.529 31.7534 110.374 31.6055 110.268 31.4041C110.162 31.2027 110.109 30.9436 110.109 30.6313C110.109 30.319 110.162 30.0603 110.268 29.863C110.374 29.6616 110.529 29.5137 110.736 29.4151C110.944 29.3165 111.201 29.2671 111.502 29.2671C111.811 29.2671 112.068 29.3165 112.275 29.4151C112.479 29.5137 112.634 29.6616 112.74 29.863C112.845 30.0603 112.898 30.319 112.898 30.6313C112.898 30.9436 112.845 31.2027 112.74 31.4041C112.634 31.6055 112.479 31.7534 112.275 31.852C112.068 31.9506 111.811 32 111.502 32ZM111.502 31.5727C111.685 31.5727 111.836 31.5395 111.954 31.4738C112.072 31.4121 112.157 31.3137 112.214 31.1781C112.271 31.0466 112.3 30.878 112.3 30.6766V30.5902C112.3 30.3847 112.271 30.2205 112.214 30.089C112.157 29.9534 112.072 29.8546 111.954 29.793C111.836 29.7272 111.685 29.6944 111.502 29.6944C111.323 29.6944 111.172 29.7272 111.054 29.793C110.936 29.8546 110.85 29.9534 110.793 30.089C110.736 30.2205 110.708 30.3847 110.708 30.5902V30.6766C110.708 30.878 110.736 31.0466 110.793 31.1781C110.85 31.3137 110.936 31.4121 111.054 31.4738C111.172 31.5395 111.323 31.5727 111.502 31.5727Z" fill="white"/>
<path fill-rule="evenodd" clip-rule="evenodd" d="M72.0144 3.44798V31.9386H67.5061V4.31586L64.0977 2.1694L67.8255 0.0438595L71.1976 2.1694L74.6517 0.0229492L78.7401 2.59045L78.6991 23.1398L75.7468 24.7769L78.7401 26.8817V31.9386H74.2091V23.8258L72.0144 22.4226L74.2182 21.061V4.83029L72.0144 3.44798Z" fill="white"/>
<path fill-rule="evenodd" clip-rule="evenodd" d="M8.30455 3.44855V31.9392H3.81915V4.95572L0 2.55448L4.11574 0.0444336L7.48777 2.16998L10.9419 0.0651409L14.9984 2.42983V23.3483L12.329 24.9957L8.30455 22.4231L10.5084 21.0615V4.83087L8.30455 3.44855Z" fill="white"/>
<path fill-rule="evenodd" clip-rule="evenodd" d="M80.9492 31.9363V0.447034L84.2984 2.49462L88.5009 0L92.6532 2.60892L88.5784 5.12952L85.4392 3.19623V19.6711H88.7518V23.569H85.4392V30.7203L88.5784 28.1944L92.7307 30.8033L91.2843 31.9467L80.9492 31.9363Z" fill="white"/>
<path fill-rule="evenodd" clip-rule="evenodd" d="M26.4059 21.7713L28.8447 31.9391H24.475L22.6969 23.5507C22.4937 23.5507 21.8841 23.5507 21.6809 23.5507V31.9391H17.2109V1.23318H20.6143C21.3763 1.23318 28.3367 0.774439 28.3367 6.87512C28.3367 7.23099 28.3873 9.97748 28.3873 12.672C28.3873 15.4173 28.6919 19.8903 26.4059 21.7713ZM23.8658 6.51964C23.815 6.11293 23.764 5.70701 23.6624 5.55449C23.2559 4.84275 22.1889 4.84156 21.6809 4.84156V19.7378C22.1889 19.7378 23.2559 19.7374 23.6624 19.0765C23.764 18.8731 23.815 18.5172 23.8658 18.0597C23.8658 18.0597 23.8658 17.9592 23.8658 17.7558C23.9166 17.3491 23.9166 17.3495 23.8658 16.892C23.8658 15.6718 23.8658 13.9934 23.8658 12.519C23.8658 11.0955 23.8658 9.36623 23.8658 8.14609C23.9166 7.68854 23.9166 7.23218 23.8658 6.82547C23.8658 6.67295 23.8658 6.57048 23.8658 6.51964Z" fill="white"/>
<path fill-rule="evenodd" clip-rule="evenodd" d="M49.6636 22.3806C48.8 23.0415 47.3774 23.5503 45.6501 23.5503C45.4469 23.5503 45.6499 23.5503 45.4467 23.5503V31.9387H41.0273V1.2328H44.6847C44.8371 1.2328 44.8883 1.18196 45.3455 1.2328C45.4979 1.2328 45.6505 1.18196 45.8029 1.2328C46.0061 1.2328 46.1585 1.23161 46.3109 1.28245C48.0382 1.4858 50.6293 2.14711 51.3405 4.99409C51.7469 6.51926 51.7463 8.14571 51.7463 11.9586V17.7038C51.7463 20.0424 50.4765 21.7197 49.6636 22.3806ZM46.4121 19.6361C46.6153 19.5344 46.8699 19.3811 47.0223 19.0761C47.1239 18.8727 47.174 18.5169 47.2248 18.0593C47.2248 18.0593 47.2248 17.9588 47.2248 17.7555C47.2756 17.3488 47.2756 17.3492 47.2248 16.8916C47.2756 15.6715 47.2248 13.993 47.2248 12.5187C47.2248 11.0952 47.2756 9.36584 47.2248 8.14571C47.2756 7.68816 47.2756 7.2318 47.2248 6.82509C47.2248 6.67257 47.2248 6.5701 47.2248 6.51926C47.174 6.11255 47.1239 5.75747 47.0223 5.55411C46.6667 4.99488 46.0063 4.99409 45.4983 4.99409V19.7374C45.8031 19.7374 46.1073 19.7378 46.4121 19.6361Z" fill="white"/>
<path fill-rule="evenodd" clip-rule="evenodd" d="M38.8387 28.3305V31.9389H30.5586V1.23291H38.8387V4.84129H35.0286V19.7375H38.3307V23.6021H35.0286V28.3305H38.8387Z" fill="white"/>
<path d="M60.5279 23.5518H57.0601L56.2464 31.9531H51.8984L55.5784 1.19629H61.9946L65.7555 31.9531H61.3418L60.5279 23.5518ZM57.3945 19.7005H60.1936L58.794 5.20277L57.3945 19.7005Z" fill="white"/>
<path d="M97.1406 1.79285V1.35571H99.2481V1.79285H98.4914V3.88878H97.8973V1.79285H97.1406Z" fill="white"/>
<path d="M99.4258 1.35571H100.172L100.805 3.0414H100.834L101.467 1.35571H102.213V3.88878H101.627V2.21364H101.606L101.006 3.87497H100.632L100.033 2.20673H100.012V3.88878H99.4258V1.35571Z" fill="white"/>
</svg>
