<svg width="14" height="14" viewBox="0 0 14 14" fill="none" xmlns="http://www.w3.org/2000/svg">
<g clip-path="url(#clip0_17663_9668)">
<path fill-rule="evenodd" clip-rule="evenodd" d="M5.66918 2.00129C5.66918 1.55937 5.84473 1.13555 6.15721 0.823072C6.4697 0.51059 6.89351 0.335039 7.33543 0.335039C7.77735 0.335039 8.20117 0.51059 8.51365 0.823072C8.82613 1.13556 9.00168 1.55937 9.00168 2.00129C9.00168 2.44321 8.82613 2.86702 8.51365 3.17951C8.20117 3.49199 7.77735 3.66754 7.33543 3.66754C6.89351 3.66754 6.4697 3.49199 6.15721 3.1795C5.84473 2.86702 5.66918 2.44321 5.66918 2.00129ZM4.18622 9.36695C4.30338 9.48396 4.46219 9.54968 4.62777 9.54968C4.79336 9.54968 4.95217 9.48396 5.06933 9.36695L6.71059 7.72569L6.71059 13.0402C6.71059 13.2059 6.77642 13.3648 6.8936 13.482C7.01078 13.5992 7.16971 13.665 7.33543 13.665C7.50115 13.665 7.66008 13.5992 7.77726 13.482C7.89444 13.3648 7.96027 13.2059 7.96027 13.0402L7.96027 7.72569L9.60153 9.36695C9.71998 9.47732 9.87665 9.53741 10.0385 9.53455C10.2004 9.53169 10.3548 9.46612 10.4693 9.35164C10.5838 9.23715 10.6494 9.0827 10.6522 8.92083C10.6551 8.75895 10.595 8.60228 10.4846 8.48383L7.77699 5.77618L7.33543 5.33379L6.89387 5.77534L4.18622 8.483C4.12815 8.54103 4.08209 8.60993 4.05067 8.68576C4.01924 8.7616 4.00306 8.84288 4.00306 8.92497C4.00306 9.00706 4.01924 9.08835 4.05067 9.16418C4.08209 9.24002 4.12815 9.30892 4.18622 9.36695Z" fill="#DA9B1A"/>
</g>
<defs>
<clipPath id="clip0_17663_9668">
<rect width="13.33" height="13.33" fill="white" transform="translate(14 13.665) rotate(-180)"/>
</clipPath>
</defs>
</svg>
