<svg width="15" height="14" viewBox="0 0 15 14" fill="none" xmlns="http://www.w3.org/2000/svg">
<path d="M12.8675 6.60717L8.42414 2.16384C8.34646 2.08619 8.24751 2.03331 8.13978 2.01189C8.03206 1.99047 7.9204 2.00146 7.81893 2.04349C7.71745 2.08552 7.63072 2.15669 7.56968 2.24801C7.50865 2.33932 7.47606 2.44669 7.47604 2.55652V4.52547C5.9588 4.66588 4.54857 5.36741 3.5213 6.49277C2.49404 7.61814 1.92369 9.08634 1.92188 10.6101V11.4432C1.92196 11.5585 1.95793 11.6709 2.02478 11.7648C2.09163 11.8588 2.18606 11.9296 2.29496 11.9674C2.40387 12.0052 2.52185 12.0083 2.63255 11.976C2.74324 11.9438 2.84117 11.8779 2.91274 11.7875C3.45696 11.1406 4.12462 10.6085 4.87675 10.2223C5.62887 9.83622 6.45038 9.6038 7.29331 9.53866C7.32108 9.53533 7.39051 9.52978 7.47604 9.52422V11.4432C7.47606 11.553 7.50865 11.6604 7.56968 11.7517C7.63072 11.843 7.71745 11.9142 7.81893 11.9562C7.9204 11.9982 8.03206 12.0092 8.13978 11.9878C8.24751 11.9664 8.34646 11.9135 8.42414 11.8359L12.8675 7.39253C12.9716 7.28838 13.0301 7.14713 13.0301 6.99985C13.0301 6.85258 12.9716 6.71133 12.8675 6.60717ZM8.58687 10.1024V8.94381C8.58687 8.79651 8.52836 8.65523 8.4242 8.55107C8.32004 8.44691 8.17876 8.38839 8.03146 8.38839C7.88983 8.38839 7.31164 8.41617 7.1639 8.43561C5.66694 8.57337 4.242 9.14211 3.06159 10.073C3.19558 8.84797 3.77671 7.71542 4.69371 6.89219C5.61071 6.06896 6.79914 5.61289 8.03146 5.61131C8.17876 5.61131 8.32004 5.55279 8.4242 5.44863C8.52836 5.34447 8.58687 5.2032 8.58687 5.05589V3.89729L11.6894 6.99985L8.58687 10.1024Z" fill="#9F9FBC"/>
</svg>
